<svg width="23" height="32" viewBox="0 0 23 32" fill="none" xmlns="http://www.w3.org/2000/svg">
<g id="Group 15225">
<path id="Subtract" d="M14.8623 0.903677C13.4323 0.311323 11.9003 0.00439289 10.3526 4.68355e-05L10.3193 0C8.22825 -2.11185e-06 6.17411 0.552291 4.36481 1.60127C2.54588 2.65582 1.03965 4.0511 0.000123978 5.87865C1.03965 7.70621 2.54588 9.2249 4.36481 10.2795C5.62799 11.0118 7.01052 11.5021 8.44161 11.7313C11.5073 11.7621 13.9836 14.4226 13.9836 17.7C13.9836 20.2034 12.5387 22.3469 10.4899 23.2334C10.7375 23.5405 11.1189 23.724 11.5408 23.6803C12.6807 23.5624 13.7997 23.2798 14.8623 22.8397C16.3027 22.2431 17.6114 21.3686 18.7138 20.2662C19.8162 19.1638 20.6906 17.8551 21.2872 16.4148C21.8838 14.9744 22.1909 13.4307 22.1909 11.8717C22.1909 10.3127 21.8838 8.76892 21.2872 7.32858C20.6906 5.88824 19.8162 4.57952 18.7138 3.47713C17.6114 2.37474 16.3027 1.50028 14.8623 0.903677Z" fill="#00A5DD"/>
<path id="Vector" d="M11.5711 23.8993C11.6033 23.7626 11.5968 23.6195 11.5522 23.4863C11.5077 23.353 11.427 23.2348 11.319 23.1449C11.2111 23.055 11.0802 22.9969 10.9411 22.9771C10.8021 22.9573 10.6602 22.9767 10.5315 23.033L3.60197 26.0673C2.93663 26.3584 3.02503 27.3305 3.73198 27.4968L6.63855 28.1806C6.7514 28.207 6.85666 28.2591 6.9462 28.3327C7.03574 28.4063 7.10716 28.4995 7.15496 28.6051L8.41396 31.3999C8.71049 32.0587 9.67421 31.966 9.83983 31.262L11.5711 23.8993Z" fill="#FF851B"/>
<circle id="Ellipse 54" cx="1.2549" cy="1.2549" r="1.2549" transform="matrix(-1 0 0 1 8.78418 4.39209)" fill="white"/>
</g>
</svg>
